<svg xmlns="http://www.w3.org/2000/svg" width="17.904" height="18.226" viewBox="0 0 17.904 18.226">
  <g id="user_3_" data-name="user (3)" transform="translate(-23.922 -27)">
    <path id="Caminho_86" data-name="Caminho 86" d="M51.274,32.137a5.137,5.137,0,1,0-5.137,5.137A5.138,5.138,0,0,0,51.274,32.137Zm-8.934,0a3.8,3.8,0,1,1,3.8,3.8A3.794,3.794,0,0,1,42.34,32.137Z" transform="translate(-13.264)" fill="#fff"/>
    <path id="Caminho_87" data-name="Caminho 87" d="M24.274,87.075a.63.63,0,0,0,.335.089.648.648,0,0,0,.581-.335,8.839,8.839,0,0,1,15.389,0,.67.67,0,0,0,1.161-.67,10.2,10.2,0,0,0-17.734,0,.671.671,0,0,0,.268.916Z" transform="translate(0 -41.939)" fill="#fff"/>
  </g>
</svg>
